<svg xmlns="http://www.w3.org/2000/svg" version="1.1" xmlns:xlink="http://www.w3.org/1999/xlink" width="24" height="24"><svg xmlns="http://www.w3.org/2000/svg" version="1.1" xmlns:xlink="http://www.w3.org/1999/xlink" width="24" height="24"><svg width="24" height="24" viewBox="0 0 24 24" fill="none" xmlns="http://www.w3.org/2000/svg">
<path d="M9.64843 0.924413L10.4247 0.472916C10.8517 0.224605 11.2271 0.0118301 11.2589 6.52343e-05C11.2912 -0.0118205 14.1211 1.60194 17.6584 3.64939L24 7.32011V12.463V17.606L23.2167 18.0587C22.7859 18.3078 22.4126 18.5115 22.3871 18.5115C22.3484 18.5115 19.3195 16.7788 18.2312 16.1341C17.4999 15.7009 14.3986 13.9184 14.3761 13.9184C14.3628 13.9184 14.3519 15.9753 14.3519 18.4893V23.0602L13.5261 23.5301L12.7004 24L12.3905 23.8208L11.1358 23.0954C10.6163 22.795 9.43135 22.1094 8.50272 21.572C6.93659 20.6656 5.07696 19.5898 3.17616 18.4904L1.20634 17.3508L0.0204201 16.6646L0.0102081 11.5134L0 6.36216L0.779003 5.90974C1.20742 5.66094 1.57956 5.45735 1.60593 5.45735C1.63234 5.45735 2.65219 6.03484 3.87231 6.74065L7.8091 9.01828C8.75421 9.56515 9.55468 10.0231 9.58797 10.0359C9.64156 10.0565 9.64843 9.54101 9.64843 5.49176V0.924413Z" fill="#D9D9D9"></path>
</svg><style>@media (prefers-color-scheme: light) { :root { filter: contrast(1) brightness(0.1); } }
@media (prefers-color-scheme: dark) { :root { filter: none; } }
</style></svg><style>@media (prefers-color-scheme: light) { :root { filter: contrast(1) brightness(0.1); } }
@media (prefers-color-scheme: dark) { :root { filter: none; } }
</style></svg>